#!OML:ASF H:\GeneralSubjects\Female5\Project 1\Capture day 1\Session 1\Female5.ASF
:FULLY-SPECIFIED
:DEGREES
407
root -10.7882 16.3722 2.73692 189.204 -77.7782 -177.205
lowerback 5.66929 1.20157 0.243256
upperback -10.6373 1.37883 0.775926
thorax -14.9263 0.51865 0.517032
lowerneck -19.6053 -1.51891 0.469047
upperneck 28.7914 -2.21904 -2.13405
head 12.8409 -1.42831 -1.31992
rclavicle 9.54166e-015 9.93923e-016
rhumerus -55.8867 22.2445 -93.161
rradius 40.9976
rwrist -0.116781
rhand -29.9819 -16.9301
rfingers 7.12502
rthumb -3.3 -46.8843
lclavicle 9.54166e-015 9.93923e-016
lhumerus -45.7587 -3.74413 79.8661
lradius 29.7648
lwrist -12.7145
lhand -26.2501 32.7685
lfingers 7.12502
lthumb 0.304204 62.748
rfemur -8.09457 21.4533 28.1862
rtibia 1.239
rfoot -22.9826 -21.1302
rtoes -1.70282
lfemur -5.61672 -23.6197 -29.1884
ltibia 2.56026
lfoot -31.721 -1.94413
ltoes -19.1761
408
root -10.7998 16.3831 2.7232 187.407 -79.3092 -175.234
lowerback 5.46007 1.08297 0.440185
upperback -10.6356 1.27415 1.04698
thorax -14.791 0.468624 0.729753
lowerneck -19.3134 -1.87668 0.0753575
upperneck 28.8104 -2.56506 -2.28461
head 12.7859 -1.64858 -1.36356
rclavicle 4.96962e-017 3.97569e-016
rhumerus -55.8209 22.9955 -93.2614
rradius 41.2031
rwrist -0.969012
rhand -30.5194 -15.6505
rfingers 7.12502
rthumb -3.81901 -45.596
lclavicle 4.96962e-017 3.97569e-016
lhumerus -46.0627 -2.26334 78.7563
lradius 29.4976
lwrist -12.3727
lhand -25.6167 34.0498
lfingers 7.12502
lthumb 0.915909 64.0276
rfemur -7.89663 21.2862 28.5954
rtibia 1.04246
rfoot -24.0059 -20.5576
rtoes -6.2544
lfemur -5.64269 -24.4432 -28.7201
ltibia 2.17951
lfoot -31.2907 -2.30094
ltoes -18.7068
409
root -10.8133 16.3876 2.71168 185.089 -80.9315 -172.807
lowerback 5.33652 0.937257 0.663645
upperback -10.6524 1.13127 1.2828
thorax -14.7316 0.394424 0.893606
lowerneck -18.9846 -2.22164 -0.490356
upperneck 28.7931 -2.93108 -2.13661
head 12.7186 -1.85482 -1.26389
rclavicle -5.96354e-015 8.74653e-015
rhumerus -55.8065 23.5342 -93.212
rradius 41.4536
rwrist -1.29314
rhand -30.7863 -14.9408
rfingers 7.12502
rthumb -4.07683 -44.8816
lclavicle -5.96354e-015 8.74653e-015
lhumerus -46.3734 -0.860875 77.6253
lradius 29.2171
lwrist -12.4143
lhand -25.5794 34.8951
lfingers 7.12502
lthumb 0.951935 64.8727
rfemur -7.50987 21.1518 28.9836
rtibia 0.64948
rfoot -24.5746 -19.8484
rtoes -9.78376
lfemur -5.76153 -24.8449 -28.2648
ltibia 1.92909
lfoot -29.9824 -4.30896
ltoes -16.7036
410
root -10.8238 16.3851 2.70346 181.891 -82.479 -169.497
lowerback 5.29734 0.822735 0.916283
upperback -10.6798 1.03279 1.49179
thorax -14.7391 0.335765 1.00265
lowerneck -18.7268 -2.53412 -1.04631
upperneck 28.7731 -3.26096 -1.96265
head 12.6693 -2.03917 -1.15085
rclavicle -1.07841e-014 -9.93923e-015
rhumerus -55.5829 23.8601 -92.8823
rradius 41.567
rwrist -1.04162
rhand -30.4253 -15.0544
rfingers 7.12502
rthumb -3.72817 -45.0016
lclavicle -1.07841e-014 -9.93923e-015
lhumerus -46.8094 0.22161 76.699
lradius 29.2151
lwrist -12.3074
lhand -26.9071 34.6611
lfingers 7.12502
lthumb -0.330361 64.6405
rfemur -7.24865 20.9833 29.284
rtibia 0.368984
rfoot -25.1324 -19.0095
rtoes -11.2499
lfemur -5.94439 -25.3855 -27.8132
ltibia 1.79755
lfoot -28.9811 -4.20571
ltoes -17.2168
411
root -10.8329 16.3768 2.697 177.584 -83.8968 -165.101
lowerback 5.29658 0.669116 1.01549
upperback -10.689 0.874059 1.80299
thorax -14.7541 0.273646 1.3217
lowerneck -18.5741 -2.78821 -1.474
upperneck 28.7605 -3.44845 -2.10318
head 12.6389 -2.18899 -1.15895
rclavicle -2.28602e-015 2.5842e-014
rhumerus -55.2715 24.411 -92.4814
rradius 41.5225
rwrist -0.774389
rhand -30.1121 -15.1375
rfingers 7.12502
rthumb -3.42567 -45.0897
lclavicle -2.28602e-015 2.5842e-014
lhumerus -47.3577 1.38386 75.9885
lradius 29.3246
lwrist -12.0634
lhand -31.5825 32.116
lfingers 7.12502
lthumb -4.84565 62.0406
rfemur -7.06605 20.4683 29.5107
rtibia 0.14952
rfoot -25.3365 -18.3893
rtoes -12.0651
lfemur -6.09377 -26.3302 -27.4735
ltibia 1.77401
lfoot -28.5772 -4.19775
ltoes -17.0753
412
root -10.8434 16.3676 2.68818 171.569 -85.2898 -159.111
lowerback 5.34541 0.503537 1.02062
upperback -10.6432 0.687166 2.07069
thorax -14.7326 0.207678 1.64876
lowerneck -18.4232 -3.06667 -1.86783
upperneck 28.7101 -3.70499 -2.17116
head 12.5949 -2.35445 -1.15485
rclavicle -3.37934e-015 -1.94809e-014
rhumerus -55.0054 24.7017 -92.0898
rradius 41.5084
rwrist -0.625846
rhand -29.9401 -15.4404
rfingers 7.12502
rthumb -3.2596 -45.3952
lclavicle -3.37934e-015 -1.94809e-014
lhumerus -47.8241 2.27872 75.4572
lradius 29.4643
lwrist -11.8515
lhand -30.5874 31.6955
lfingers 7.12502
lthumb -3.8847 61.6398
rfemur -6.71871 19.7551 29.7141
rtibia -0.135402
rfoot -25.5013 -18.0127
rtoes -10.986
lfemur -6.17429 -27.2143 -27.3289
ltibia 1.89159
lfoot -28.2212 -4.23801
ltoes -16.768
413
root -10.8545 16.3581 2.67456 162.163 -86.5355 -149.8
lowerback 5.41344 0.405634 1.00248
upperback -10.5701 0.580323 2.22863
thorax -14.6884 0.17517 1.85151
lowerneck -18.206 -3.39609 -2.29219
upperneck 28.6596 -4.09393 -2.03719
head 12.5439 -2.55452 -1.08813
rclavicle -7.25564e-015 7.95139e-015
rhumerus -54.7781 24.6991 -91.7682
rradius 41.4404
rwrist -0.462648
rhand -29.7601 -15.7677
rfingers 7.12502
rthumb -3.08575 -45.7251
lclavicle -7.25564e-015 7.95139e-015
lhumerus -48.1847 2.41299 75.2597
lradius 29.5973
lwrist -11.4072
lhand -30.0399 31.6397
lfingers 7.12502
lthumb -3.35599 61.593
rfemur -6.36347 19.3834 29.8962
rtibia -0.282625
rfoot -26.0031 -17.9471
rtoes -8.28251
lfemur -6.24604 -27.7579 -27.2363
ltibia 2.0181
lfoot -27.5779 -4.26779
ltoes -16.1833
414
root -10.8642 16.3482 2.65781 147.755 -87.5327 -135.514
lowerback 5.53622 0.334695 0.794095
upperback -10.5009 0.48811 2.3915
thorax -14.6864 0.171389 2.1646
lowerneck -18.0437 -3.67964 -2.70022
upperneck 28.7459 -4.40724 -1.9731
head 12.56 -2.73169 -1.04397
rclavicle 2.88238e-015 -1.59028e-014
rhumerus -54.5551 24.956 -91.5621
rradius 41.1949
rwrist -0.311126
rhand -29.6294 -15.6425
rfingers 7.12502
rthumb -2.95958 -45.6017
lclavicle 2.88238e-015 -1.59028e-014
lhumerus -48.4579 2.5368 75.1424
lradius 29.394
lwrist -11.1973
lhand -29.9412 31.4778
lfingers 7.12502
lthumb -3.26065 61.4327
rfemur -6.12617 19.3726 29.9728
rtibia -0.234847
rfoot -26.1193 -18.5796
rtoes -5.63116
lfemur -6.19495 -28.3072 -27.1964
ltibia 1.93989
lfoot -27.0674 -4.20133
ltoes -15.8525
415
root -10.8728 16.3392 2.64255 122.525 -88.2788 -110.381
lowerback 5.67219 0.268659 0.512048
upperback -10.4571 0.386272 2.50357
thorax -14.7223 0.167364 2.46577
lowerneck -17.8986 -3.9183 -3.02661
upperneck 28.9005 -4.66604 -1.97504
head 12.6044 -2.88645 -1.03244
rclavicle -2.28602e-015 1.19271e-014
rhumerus -54.3099 25.2297 -91.4076
rradius 40.8299
rwrist 0.0198739
rhand -29.5676 -15.5577
rfingers 7.12502
rthumb -2.89985 -45.5177
lclavicle -2.28602e-015 1.19271e-014
lhumerus -48.7083 2.67731 75.075
lradius 29.0904
lwrist -11.2759
lhand -29.6633 31.3706
lfingers 7.12502
lthumb -2.99227 61.3293
rfemur -5.97142 19.1441 29.9181
rtibia -0.201173
rfoot -25.5453 -19.6014
rtoes -1.51912
lfemur -6.17179 -28.7134 -27.2386
ltibia 1.90876
lfoot -26.403 -4.16196
ltoes -16.3313
416
root -10.8886 16.3301 2.62942 83.9331 -88.4364 -71.8763
lowerback 5.72027 0.230725 0.266798
upperback -10.4179 0.318665 2.56885
thorax -14.7064 0.170903 2.68727
lowerneck -17.7621 -4.16051 -3.30001
upperneck 29.1223 -4.96338 -1.94178
head 12.6784 -3.04915 -1.02501
rclavicle 4.07509e-015 -6.36111e-015
rhumerus -54.1365 25.3285 -91.309
rradius 40.469
rwrist 0.324655
rhand -29.4606 -15.7349
rfingers 7.12502
rthumb -2.79652 -45.6963
lclavicle 4.07509e-015 -6.36111e-015
lhumerus -48.8759 2.7307 75.1286
lradius 28.7967
lwrist -11.6013
lhand -29.3577 31.4792
lfingers 7.12502
lthumb -2.69715 61.4419
rfemur -5.63848 18.9024 29.89
rtibia -0.454617
rfoot -25.128 -20.4446
rtoes 3.66941
lfemur -6.15961 -28.8123 -27.3323
ltibia 1.99603
lfoot -25.4226 -4.25044
ltoes -16.5892
417
root -10.9125 16.3181 2.61611 55.9534 -87.9798 -44.0167
lowerback 5.66772 0.224377 0.023463
upperback -10.3418 0.293924 2.64482
thorax -14.5829 0.193799 2.909
lowerneck -17.7323 -4.39635 -3.59608
upperneck 29.4992 -5.27499 -1.82367
head 12.8435 -3.21101 -0.992056
rclavicle -6.75868e-015 1.90833e-014
rhumerus -54.106 25.4916 -91.3613
rradius 40.1904
rwrist 0.346814
rhand -29.2099 -16.1455
rfingers 7.12502
rthumb -2.55444 -46.11
lclavicle -6.75868e-015 1.90833e-014
lhumerus -48.9321 3.02135 75.1365
lradius 28.4483
lwrist -12.3048
lhand -29.1286 31.7899
lfingers 7.12502
lthumb -2.47587 61.7552
rfemur -5.10751 18.9275 29.9905
rtibia -0.877118
rfoot -24.9185 -21.4709
rtoes 5.91796
lfemur -6.01157 -28.8234 -27.4551
ltibia 2.01047
lfoot -24.5047 -4.31459
ltoes -16.4973
418
root -10.9414 16.3046 2.6029 41.3674 -87.3495 -29.5779
lowerback 5.5436 0.233039 -0.244629
upperback -10.2635 0.28169 2.69101
thorax -14.4117 0.221579 3.10788
lowerneck -17.6983 -4.60956 -3.94095
upperneck 29.998 -5.58533 -1.59626
head 13.0671 -3.36585 -0.913281
rclavicle -2.08724e-015 9.54166e-015
rhumerus -54.264 25.8671 -91.7154
rradius 39.9265
rwrist 0.190929
rhand -29.5444 -16.0293
rfingers 7.12502
rthumb -2.87745 -45.9897
lclavicle -2.08724e-015 9.54166e-015
lhumerus -49.0465 3.30296 75.1579
lradius 28.0721
lwrist -13.0071
lhand -29.1079 32.0006
lfingers 7.12502
lthumb -2.45593 61.9662
rfemur -4.49541 19.1543 30.1447
rtibia -1.30054
rfoot -24.9614 -22.7905
rtoes 7.08282
lfemur -5.75524 -28.8228 -27.6413
ltibia 1.91991
lfoot -23.7035 -4.31
ltoes -16.6348
